<?xml version="1.0" encoding="utf-8"?>
<!-- Generator: Adobe Illustrator 19.0.0, SVG Export Plug-In . SVG Version: 6.00 Build 0)  -->
<svg version="1.1" id="Layer_1" xmlns="http://www.w3.org/2000/svg" xmlns:xlink="http://www.w3.org/1999/xlink" x="0px" y="0px"
	 viewBox="0 0 612 792" style="enable-background:new 0 0 612 792;" xml:space="preserve">
<style type="text/css">
	.st0{fill:none;stroke:#000000;stroke-miterlimit:10;}
</style>
<g>
	<path class="st0" d="M396.8,339.5v113.4 M396.8,452.9H214.5 M214.5,339.5v113.4 M214.5,339.5h182.3 M389.7,373.5v-4.3 M389.7,369.3
		h-4.3 M385.4,369.3v-2.8 M385.4,366.4h4.3 M389.7,366.4v-4.3 M221.6,362.2h168.1 M221.6,366.4v-4.3 M221.6,366.4h4.3 M225.8,366.4
		v2.8 M225.8,369.3h-4.3 M221.6,373.5v-4.3 M221.6,373.5h4.3 M225.8,373.5v2.8 M225.8,376.4h-4.3 M221.6,380.6v-4.3 M221.6,380.6
		h4.3 M225.8,380.6v2.8 M225.8,383.4h-4.3 M221.6,387.7v-4.3 M221.6,387.7h4.3 M225.8,387.7v2.8 M225.8,390.5h-4.3 M221.6,394.8
		v-4.3 M221.6,394.8h4.3 M225.8,394.8v2.8 M225.8,397.6h-4.3 M221.6,401.9v-4.3 M221.6,401.9h4.3 M225.8,401.9v2.8 M225.8,404.7
		h-4.3 M221.6,408.9v-4.3 M221.6,408.9h4.3 M225.8,408.9v2.8 M225.8,411.8h-4.3 M221.6,416v-4.3 M221.6,416h4.3 M225.8,416v2.8
		 M225.8,418.9h-4.3 M221.6,423.1v-4.3 M221.6,423.1h4.3 M225.8,423.1v2.8 M225.8,426h-4.3 M221.6,430.2V426 M221.6,430.2h168.1
		 M389.7,430.2V426 M389.7,426h-4.3 M385.4,426v-2.8 M385.4,423.1h4.3 M389.7,423.1v-4.3 M389.7,418.9h-4.3 M385.4,418.9V416
		 M385.4,416h4.3 M389.7,416v-4.3 M389.7,411.8h-4.3 M385.4,411.8v-2.8 M385.4,408.9h4.3 M389.7,408.9v-4.3 M389.7,404.7h-4.3
		 M385.4,404.7v-2.8 M385.4,401.9h4.3 M389.7,401.9v-4.3 M389.7,397.6h-4.3 M385.4,397.6v-2.8 M385.4,394.8h4.3 M389.7,394.8v-4.3
		 M389.7,390.5h-4.3 M385.4,390.5v-2.8 M385.4,387.7h4.3 M389.7,387.7v-4.3 M389.7,383.4h-4.3 M385.4,383.4v-2.8 M385.4,380.6h4.3
		 M389.7,380.6v-4.3 M389.7,376.4h-4.3 M385.4,376.4v-2.8 M385.4,373.5h4.3 M342.4,443.5l-0.4-0.9 M343,444.3l-0.6-0.8 M343.8,444.9
		l-0.8-0.6 M344.7,445.3l-0.9-0.4 M345.7,445.4l-1-0.1 M346.7,445.3l-1,0.1 M347.7,444.9l-0.9,0.4 M348.5,444.3l-0.8,0.6
		 M349.1,443.5l-0.6,0.8 M349.5,442.6l-0.4,0.9 M349.6,441.5l-0.1,1 M349.5,440.5l0.1,1 M349.1,439.6l0.4,0.9 M348.5,438.8l0.6,0.8
		 M347.7,438.2l0.8,0.6 M346.7,437.8l0.9,0.4 M345.7,437.7l1,0.1 M344.7,437.8l1-0.1 M343.8,438.2l0.9-0.4 M343,438.8l0.8-0.6
		 M342.4,439.6l0.6-0.8 M342,440.5l0.4-0.9 M341.9,441.5l0.1-1 M342,442.6l-0.1-1 M269.4,441.5l-0.1,1 M269.3,440.5l0.1,1
		 M268.9,439.6l0.4,0.9 M268.3,438.8l0.6,0.8 M267.5,438.2l0.8,0.6 M266.5,437.8l0.9,0.4 M265.5,437.7l1,0.1 M264.5,437.8l1-0.1
		 M263.6,438.2l0.9-0.4 M262.8,438.8l0.8-0.6 M262.2,439.6l0.6-0.8 M261.8,440.5l0.4-0.9 M261.6,441.5l0.1-1 M261.8,442.6l-0.1-1
		 M262.2,443.5l-0.4-0.9 M262.8,444.3l-0.6-0.8 M263.6,444.9l-0.8-0.6 M264.5,445.3l-0.9-0.4 M265.5,445.4l-1-0.1 M266.5,445.3
		l-1,0.1 M267.5,444.9l-0.9,0.4 M268.3,444.3l-0.8,0.6 M268.9,443.5l-0.6,0.8 M269.3,442.6l-0.4,0.9 M346.7,347.1l0.9,0.4
		 M345.7,347l1,0.1 M344.7,347.1l1-0.1 M343.8,347.5l0.9-0.4 M343,348.1l0.8-0.6 M342.4,348.9l0.6-0.8 M342,349.8l0.4-0.9
		 M341.9,350.8l0.1-1 M342,351.8l-0.1-1 M342.4,352.8l-0.4-0.9 M343,353.6l-0.6-0.8 M343.8,354.2l-0.8-0.6 M344.7,354.6l-0.9-0.4
		 M345.7,354.7l-1-0.1 M346.7,354.6l-1,0.1 M347.7,354.2l-0.9,0.4 M348.5,353.6l-0.8,0.6 M349.1,352.8l-0.6,0.8 M349.5,351.8
		l-0.4,0.9 M349.6,350.8l-0.1,1 M349.5,349.8l0.1,1 M349.1,348.9l0.4,0.9 M348.5,348.1l0.6,0.8 M347.7,347.5l0.8,0.6 M269.3,349.8
		l0.1,1 M268.9,348.9l0.4,0.9 M268.3,348.1l0.6,0.8 M267.5,347.5l0.8,0.6 M266.5,347.1l0.9,0.4 M265.5,347l1,0.1 M264.5,347.1l1-0.1
		 M263.6,347.5l0.9-0.4 M262.8,348.1l0.8-0.6 M262.2,348.9l0.6-0.8 M261.8,349.8l0.4-0.9 M261.6,350.8l0.1-1 M261.8,351.8l-0.1-1
		 M262.2,352.8l-0.4-0.9 M262.8,353.6l-0.6-0.8 M263.6,354.2l-0.8-0.6 M264.5,354.6l-0.9-0.4 M265.5,354.7l-1-0.1 M266.5,354.6
		l-1,0.1 M267.5,354.2l-0.9,0.4 M268.3,353.6l-0.8,0.6 M268.9,352.8l-0.6,0.8 M269.3,351.8l-0.4,0.9 M269.4,350.8l-0.1,1"/>
</g>
</svg>
